<svg xmlns="http://www.w3.org/2000/svg" xmlns:xlink="http://www.w3.org/1999/xlink" width="500" zoomAndPan="magnify" viewBox="0 0 375 374.999991" height="500" preserveAspectRatio="xMidYMid meet" version="1.0"><defs><g/><clipPath id="47086cb8e7"><path d="M 119.789062 125.597656 L 255.507812 125.597656 L 255.507812 179.597656 L 119.789062 179.597656 Z M 119.789062 125.597656 " clip-rule="nonzero"/></clipPath></defs><g clip-path="url(#47086cb8e7)"><path fill="#ff3131" d="M 207.40625 165.195312 C 215.691406 167.332031 223.738281 170.828125 231.1875 175.730469 C 224.765625 168.984375 216.882812 163.867188 208.324219 160.671875 C 208.378906 160.238281 208.378906 159.832031 208.378906 159.398438 C 208.378906 157.066406 208 154.875 207.324219 152.789062 L 214.851562 149.050781 C 217.425781 149.105469 220.054688 149.105469 222.816406 149.105469 L 229.613281 149.105469 C 230.671875 148.726562 231.484375 147.695312 231.484375 146.53125 L 231.539062 146.53125 L 231.539062 146.476562 L 231.863281 134.964844 C 244.945312 135.238281 255.183594 134.695312 255.183594 133.667969 C 255.238281 132.636719 245.027344 131.527344 231.945312 131.066406 L 232 128.601562 C 232.050781 127.03125 230.78125 125.730469 229.261719 125.675781 C 227.71875 125.621094 226.363281 126.894531 226.363281 128.410156 L 226.257812 130.929688 C 213.175781 130.660156 202.9375 131.203125 202.882812 132.230469 C 202.882812 133.261719 213.039062 134.371094 226.148438 134.832031 L 225.875 143.578125 L 223.085938 143.472656 L 213.582031 143.199219 L 204.722656 147.5625 C 200.957031 142.0625 194.675781 138.488281 187.496094 138.488281 L 187.46875 138.488281 C 180.292969 138.488281 174.007812 142.0625 170.242188 147.5625 L 161.386719 143.199219 L 151.851562 143.472656 L 149.0625 143.578125 L 148.847656 134.832031 C 161.929688 134.371094 172.113281 133.261719 172.113281 132.230469 C 172.058594 131.203125 161.820312 130.660156 148.738281 130.929688 L 148.628906 128.410156 C 148.574219 126.867188 147.277344 125.621094 145.730469 125.675781 C 144.160156 125.730469 142.886719 127.03125 142.941406 128.628906 L 143.050781 131.09375 C 129.914062 131.554688 119.757812 132.664062 119.757812 133.691406 C 119.8125 134.722656 130.050781 135.265625 143.132812 134.992188 L 143.457031 146.503906 L 143.457031 146.53125 C 143.511719 147.695312 144.296875 148.726562 145.324219 149.105469 L 152.179688 149.105469 C 154.914062 149.105469 157.539062 149.105469 160.140625 149.050781 L 167.671875 152.789062 C 166.964844 154.902344 166.613281 157.066406 166.613281 159.398438 C 166.613281 159.832031 166.613281 160.238281 166.667969 160.671875 C 158.054688 163.839844 150.226562 168.957031 143.808594 175.730469 C 151.257812 170.828125 159.273438 167.359375 167.589844 165.195312 C 170.378906 173.5625 178.34375 179.496094 187.46875 179.496094 C 196.652344 179.496094 204.585938 173.589844 207.40625 165.195312 Z M 203.152344 161.238281 C 203.152344 161.292969 203.152344 161.347656 203.097656 161.347656 C 202.910156 162.296875 202.636719 163.214844 202.3125 164.027344 C 199.929688 169.988281 194.105469 174.023438 187.523438 174.023438 C 180.941406 174.023438 175.144531 169.960938 172.761719 164.027344 C 172.382812 163.1875 172.113281 162.242188 171.921875 161.347656 C 171.921875 161.347656 171.921875 161.292969 171.921875 161.238281 C 171.867188 160.644531 171.816406 160.019531 171.816406 159.425781 C 171.816406 157.933594 172.003906 156.472656 172.382812 155.144531 L 176.851562 157.339844 C 176.796875 157.71875 176.746094 158.070312 176.71875 158.449219 L 176.71875 158.664062 L 176.636719 158.71875 L 176.636719 159.53125 C 176.636719 166.65625 182.078125 170.230469 187.46875 170.203125 C 192.914062 170.257812 198.359375 166.683594 198.359375 159.53125 L 198.359375 158.882812 L 198.304688 158.828125 L 198.304688 158.394531 C 198.25 158.015625 198.195312 157.664062 198.167969 157.285156 L 202.582031 155.089844 C 203.015625 156.445312 203.179688 157.878906 203.179688 159.371094 C 203.234375 160.019531 203.179688 160.644531 203.152344 161.238281 Z M 187.253906 157.472656 C 187.253906 155.929688 188.472656 154.683594 189.988281 154.683594 C 191.503906 154.683594 192.777344 155.957031 192.777344 157.472656 C 192.777344 158.992188 191.503906 160.210938 189.988281 160.210938 C 188.445312 160.210938 187.253906 158.992188 187.253906 157.472656 Z M 187.46875 148.589844 L 186.601562 148.589844 L 186.46875 148.644531 L 186.117188 148.644531 L 185.980469 148.699219 L 185.84375 148.699219 L 185.710938 148.753906 L 185.574219 148.753906 L 185.4375 148.808594 L 185.304688 148.808594 L 185.167969 148.859375 L 185.03125 148.914062 L 184.898438 148.96875 L 184.464844 149.078125 L 184.191406 149.1875 L 184.058594 149.238281 L 183.921875 149.292969 C 182.132812 149.890625 180.617188 150.917969 179.398438 152.273438 L 174.929688 150.078125 C 177.828125 146.261719 182.378906 143.796875 187.496094 143.796875 C 192.671875 143.796875 197.21875 146.261719 200.066406 150.078125 L 195.59375 152.273438 C 194.429688 150.917969 192.859375 149.890625 191.125 149.292969 L 190.992188 149.238281 L 190.855469 149.1875 L 190.71875 149.132812 L 190.585938 149.078125 L 190.152344 148.96875 L 189.878906 148.859375 L 189.746094 148.808594 L 189.609375 148.808594 L 189.472656 148.753906 L 189.339844 148.753906 L 189.203125 148.699219 L 189.066406 148.699219 L 188.878906 148.644531 L 188.609375 148.644531 L 188.472656 148.589844 Z M 186.628906 162.730469 C 187.199219 162.730469 187.660156 163.1875 187.660156 163.757812 C 187.660156 164.328125 187.199219 164.789062 186.628906 164.789062 C 186.0625 164.789062 185.601562 164.328125 185.601562 163.757812 C 185.601562 163.1875 186.089844 162.730469 186.628906 162.730469 Z M 186.628906 162.730469 " fill-opacity="1" fill-rule="evenodd"/></g><g fill="#000000" fill-opacity="1"><g transform="translate(145.379702, 225.32383)"><g><path d="M 2.546875 0 L 2.546875 -26.859375 L 20.078125 -26.859375 L 25.65625 -21.28125 L 25.65625 -5.578125 L 20.078125 0 Z M 9.375 -5.171875 L 17.140625 -5.171875 L 19.0625 -7.109375 L 19.0625 -19.75 L 17.140625 -21.6875 L 9.375 -21.6875 Z M 9.375 -5.171875 "/></g></g></g><g fill="#000000" fill-opacity="1"><g transform="translate(176.141016, 225.32383)"><g><path d="M 8.96875 0 L 8.96875 -9.40625 L 6.265625 -11.734375 L 0 -26.859375 L 7.84375 -26.859375 L 11.703125 -14.515625 L 13.015625 -14.515625 L 16.875 -26.859375 L 24.71875 -26.859375 L 18.4375 -11.734375 L 15.75 -9.40625 L 15.75 0 Z M 8.96875 0 "/></g></g></g><g fill="#000000" fill-opacity="1"><g transform="translate(204.496897, 225.32383)"><g><path d="M 2.546875 0 L 2.546875 -26.859375 L 20.515625 -26.859375 L 24.5625 -22.8125 L 24.5625 -12.46875 L 20.515625 -8.421875 L 9.375 -8.421875 L 9.375 0 Z M 9.375 -13.59375 L 16.703125 -13.59375 L 17.96875 -14.875 L 17.96875 -20.40625 L 16.703125 -21.6875 L 9.375 -21.6875 Z M 9.375 -13.59375 "/></g></g></g><g fill="#000000" fill-opacity="1"><g transform="translate(112.927053, 246.22428)"><g><path d="M 1.203125 0 C 1.117188 0 1.054688 -0.0195312 1.015625 -0.0625 C 0.972656 -0.113281 0.953125 -0.175781 0.953125 -0.25 L 0.953125 -7.40625 C 0.953125 -7.488281 0.972656 -7.550781 1.015625 -7.59375 C 1.054688 -7.644531 1.117188 -7.671875 1.203125 -7.671875 L 3.984375 -7.671875 C 4.523438 -7.671875 4.992188 -7.582031 5.390625 -7.40625 C 5.785156 -7.226562 6.09375 -6.960938 6.3125 -6.609375 C 6.539062 -6.265625 6.65625 -5.835938 6.65625 -5.328125 C 6.65625 -4.804688 6.539062 -4.375 6.3125 -4.03125 C 6.09375 -3.6875 5.785156 -3.425781 5.390625 -3.25 C 4.992188 -3.070312 4.523438 -2.984375 3.984375 -2.984375 L 2.046875 -2.984375 L 2.046875 -0.25 C 2.046875 -0.175781 2.019531 -0.113281 1.96875 -0.0625 C 1.925781 -0.0195312 1.863281 0 1.78125 0 Z M 2.03125 -3.90625 L 3.9375 -3.90625 C 4.476562 -3.90625 4.878906 -4.023438 5.140625 -4.265625 C 5.410156 -4.515625 5.546875 -4.867188 5.546875 -5.328125 C 5.546875 -5.773438 5.414062 -6.125 5.15625 -6.375 C 4.894531 -6.625 4.488281 -6.75 3.9375 -6.75 L 2.03125 -6.75 Z M 2.03125 -3.90625 "/></g></g></g><g fill="#000000" fill-opacity="1"><g transform="translate(125.980405, 246.22428)"><g><path d="M 1.203125 0 C 1.117188 0 1.054688 -0.0195312 1.015625 -0.0625 C 0.972656 -0.113281 0.953125 -0.175781 0.953125 -0.25 L 0.953125 -7.40625 C 0.953125 -7.488281 0.972656 -7.550781 1.015625 -7.59375 C 1.054688 -7.644531 1.117188 -7.671875 1.203125 -7.671875 L 3.875 -7.671875 C 4.695312 -7.671875 5.347656 -7.472656 5.828125 -7.078125 C 6.316406 -6.691406 6.5625 -6.117188 6.5625 -5.359375 C 6.5625 -4.804688 6.421875 -4.351562 6.140625 -4 C 5.859375 -3.644531 5.476562 -3.394531 5 -3.25 L 6.6875 -0.34375 C 6.707031 -0.300781 6.71875 -0.257812 6.71875 -0.21875 C 6.71875 -0.15625 6.691406 -0.101562 6.640625 -0.0625 C 6.597656 -0.0195312 6.546875 0 6.484375 0 L 5.953125 0 C 5.828125 0 5.734375 -0.03125 5.671875 -0.09375 C 5.617188 -0.164062 5.570312 -0.234375 5.53125 -0.296875 L 3.9375 -3.078125 L 2.03125 -3.078125 L 2.03125 -0.25 C 2.03125 -0.175781 2.003906 -0.113281 1.953125 -0.0625 C 1.910156 -0.0195312 1.847656 0 1.765625 0 Z M 2.03125 -4.015625 L 3.828125 -4.015625 C 4.378906 -4.015625 4.789062 -4.128906 5.0625 -4.359375 C 5.332031 -4.585938 5.46875 -4.925781 5.46875 -5.375 C 5.46875 -5.820312 5.332031 -6.160156 5.0625 -6.390625 C 4.800781 -6.628906 4.390625 -6.75 3.828125 -6.75 L 2.03125 -6.75 Z M 2.03125 -4.015625 "/></g></g></g><g fill="#000000" fill-opacity="1"><g transform="translate(139.176072, 246.22428)"><g><path d="M 3.71875 0.109375 C 3.082031 0.109375 2.539062 0.00390625 2.09375 -0.203125 C 1.65625 -0.421875 1.316406 -0.753906 1.078125 -1.203125 C 0.835938 -1.660156 0.703125 -2.226562 0.671875 -2.90625 C 0.660156 -3.226562 0.65625 -3.535156 0.65625 -3.828125 C 0.65625 -4.117188 0.660156 -4.425781 0.671875 -4.75 C 0.703125 -5.425781 0.84375 -5.988281 1.09375 -6.4375 C 1.34375 -6.882812 1.691406 -7.21875 2.140625 -7.4375 C 2.585938 -7.664062 3.113281 -7.78125 3.71875 -7.78125 C 4.300781 -7.78125 4.816406 -7.664062 5.265625 -7.4375 C 5.722656 -7.21875 6.078125 -6.882812 6.328125 -6.4375 C 6.585938 -5.988281 6.726562 -5.425781 6.75 -4.75 C 6.757812 -4.425781 6.765625 -4.117188 6.765625 -3.828125 C 6.765625 -3.535156 6.757812 -3.226562 6.75 -2.90625 C 6.726562 -2.226562 6.59375 -1.660156 6.34375 -1.203125 C 6.101562 -0.753906 5.757812 -0.421875 5.3125 -0.203125 C 4.863281 0.00390625 4.332031 0.109375 3.71875 0.109375 Z M 3.71875 -0.828125 C 4.269531 -0.828125 4.722656 -0.992188 5.078125 -1.328125 C 5.429688 -1.660156 5.625 -2.203125 5.65625 -2.953125 C 5.664062 -3.285156 5.671875 -3.582031 5.671875 -3.84375 C 5.671875 -4.101562 5.664062 -4.390625 5.65625 -4.703125 C 5.632812 -5.210938 5.535156 -5.625 5.359375 -5.9375 C 5.191406 -6.25 4.96875 -6.476562 4.6875 -6.625 C 4.40625 -6.769531 4.082031 -6.84375 3.71875 -6.84375 C 3.351562 -6.84375 3.023438 -6.769531 2.734375 -6.625 C 2.453125 -6.476562 2.222656 -6.25 2.046875 -5.9375 C 1.878906 -5.625 1.785156 -5.210938 1.765625 -4.703125 C 1.753906 -4.390625 1.75 -4.101562 1.75 -3.84375 C 1.75 -3.582031 1.753906 -3.285156 1.765625 -2.953125 C 1.796875 -2.203125 1.988281 -1.660156 2.34375 -1.328125 C 2.695312 -0.992188 3.15625 -0.828125 3.71875 -0.828125 Z M 3.71875 -0.828125 "/></g></g></g><g fill="#000000" fill-opacity="1"><g transform="translate(152.612577, 246.22428)"><g><path d="M 1.203125 0 C 1.117188 0 1.054688 -0.0195312 1.015625 -0.0625 C 0.972656 -0.113281 0.953125 -0.175781 0.953125 -0.25 L 0.953125 -7.40625 C 0.953125 -7.488281 0.972656 -7.550781 1.015625 -7.59375 C 1.054688 -7.644531 1.117188 -7.671875 1.203125 -7.671875 L 3.6875 -7.671875 C 4.4375 -7.671875 5.039062 -7.554688 5.5 -7.328125 C 5.96875 -7.097656 6.304688 -6.757812 6.515625 -6.3125 C 6.722656 -5.875 6.832031 -5.335938 6.84375 -4.703125 C 6.851562 -4.367188 6.859375 -4.078125 6.859375 -3.828125 C 6.859375 -3.585938 6.851562 -3.304688 6.84375 -2.984375 C 6.832031 -2.304688 6.722656 -1.742188 6.515625 -1.296875 C 6.304688 -0.859375 5.976562 -0.53125 5.53125 -0.3125 C 5.082031 -0.101562 4.488281 0 3.75 0 Z M 2.03125 -0.9375 L 3.6875 -0.9375 C 4.195312 -0.9375 4.597656 -1.003906 4.890625 -1.140625 C 5.191406 -1.273438 5.410156 -1.492188 5.546875 -1.796875 C 5.679688 -2.109375 5.753906 -2.515625 5.765625 -3.015625 C 5.773438 -3.242188 5.78125 -3.4375 5.78125 -3.59375 C 5.78125 -3.757812 5.78125 -3.925781 5.78125 -4.09375 C 5.78125 -4.257812 5.773438 -4.445312 5.765625 -4.65625 C 5.742188 -5.363281 5.570312 -5.882812 5.25 -6.21875 C 4.9375 -6.5625 4.398438 -6.734375 3.640625 -6.734375 L 2.03125 -6.734375 Z M 2.03125 -0.9375 "/></g></g></g><g fill="#000000" fill-opacity="1"><g transform="translate(166.180459, 246.22428)"><g><path d="M 3.84375 0.109375 C 3.226562 0.109375 2.695312 0 2.25 -0.21875 C 1.8125 -0.4375 1.472656 -0.769531 1.234375 -1.21875 C 1.003906 -1.664062 0.890625 -2.242188 0.890625 -2.953125 L 0.890625 -7.40625 C 0.890625 -7.488281 0.910156 -7.550781 0.953125 -7.59375 C 0.992188 -7.644531 1.054688 -7.671875 1.140625 -7.671875 L 1.703125 -7.671875 C 1.773438 -7.671875 1.832031 -7.644531 1.875 -7.59375 C 1.925781 -7.550781 1.953125 -7.488281 1.953125 -7.40625 L 1.953125 -2.9375 C 1.953125 -2.21875 2.117188 -1.6875 2.453125 -1.34375 C 2.796875 -1 3.257812 -0.828125 3.84375 -0.828125 C 4.414062 -0.828125 4.875 -1 5.21875 -1.34375 C 5.5625 -1.6875 5.734375 -2.21875 5.734375 -2.9375 L 5.734375 -7.40625 C 5.734375 -7.488281 5.753906 -7.550781 5.796875 -7.59375 C 5.847656 -7.644531 5.910156 -7.671875 5.984375 -7.671875 L 6.546875 -7.671875 C 6.617188 -7.671875 6.675781 -7.644531 6.71875 -7.59375 C 6.769531 -7.550781 6.796875 -7.488281 6.796875 -7.40625 L 6.796875 -2.953125 C 6.796875 -2.242188 6.675781 -1.664062 6.4375 -1.21875 C 6.207031 -0.769531 5.875 -0.4375 5.4375 -0.21875 C 5 0 4.46875 0.109375 3.84375 0.109375 Z M 3.84375 0.109375 "/></g></g></g><g fill="#000000" fill-opacity="1"><g transform="translate(179.879705, 246.22428)"><g><path d="M 3.71875 0.109375 C 3.039062 0.109375 2.476562 -0.015625 2.03125 -0.265625 C 1.59375 -0.515625 1.257812 -0.859375 1.03125 -1.296875 C 0.8125 -1.742188 0.691406 -2.265625 0.671875 -2.859375 C 0.660156 -3.160156 0.65625 -3.484375 0.65625 -3.828125 C 0.65625 -4.171875 0.660156 -4.5 0.671875 -4.8125 C 0.691406 -5.40625 0.8125 -5.921875 1.03125 -6.359375 C 1.257812 -6.804688 1.59375 -7.15625 2.03125 -7.40625 C 2.476562 -7.65625 3.039062 -7.78125 3.71875 -7.78125 C 4.21875 -7.78125 4.65625 -7.707031 5.03125 -7.5625 C 5.414062 -7.425781 5.734375 -7.238281 5.984375 -7 C 6.234375 -6.769531 6.425781 -6.507812 6.5625 -6.21875 C 6.695312 -5.9375 6.769531 -5.640625 6.78125 -5.328125 C 6.789062 -5.265625 6.769531 -5.210938 6.71875 -5.171875 C 6.675781 -5.128906 6.617188 -5.109375 6.546875 -5.109375 L 5.953125 -5.109375 C 5.878906 -5.109375 5.816406 -5.125 5.765625 -5.15625 C 5.722656 -5.195312 5.691406 -5.265625 5.671875 -5.359375 C 5.546875 -5.921875 5.3125 -6.304688 4.96875 -6.515625 C 4.632812 -6.734375 4.21875 -6.84375 3.71875 -6.84375 C 3.125 -6.84375 2.65625 -6.675781 2.3125 -6.34375 C 1.96875 -6.007812 1.785156 -5.476562 1.765625 -4.75 C 1.742188 -4.15625 1.742188 -3.539062 1.765625 -2.90625 C 1.785156 -2.175781 1.96875 -1.644531 2.3125 -1.3125 C 2.65625 -0.988281 3.125 -0.828125 3.71875 -0.828125 C 4.21875 -0.828125 4.632812 -0.929688 4.96875 -1.140625 C 5.3125 -1.347656 5.546875 -1.738281 5.671875 -2.3125 C 5.691406 -2.40625 5.722656 -2.46875 5.765625 -2.5 C 5.816406 -2.539062 5.878906 -2.5625 5.953125 -2.5625 L 6.546875 -2.5625 C 6.617188 -2.5625 6.675781 -2.539062 6.71875 -2.5 C 6.769531 -2.457031 6.789062 -2.40625 6.78125 -2.34375 C 6.769531 -2.039062 6.695312 -1.738281 6.5625 -1.4375 C 6.425781 -1.144531 6.234375 -0.882812 5.984375 -0.65625 C 5.734375 -0.425781 5.414062 -0.238281 5.03125 -0.09375 C 4.65625 0.0390625 4.21875 0.109375 3.71875 0.109375 Z M 3.71875 0.109375 "/></g></g></g><g fill="#000000" fill-opacity="1"><g transform="translate(193.195798, 246.22428)"><g><path d="M 3.71875 0.109375 C 3.039062 0.109375 2.476562 -0.015625 2.03125 -0.265625 C 1.59375 -0.515625 1.257812 -0.859375 1.03125 -1.296875 C 0.8125 -1.742188 0.691406 -2.265625 0.671875 -2.859375 C 0.660156 -3.160156 0.65625 -3.484375 0.65625 -3.828125 C 0.65625 -4.171875 0.660156 -4.5 0.671875 -4.8125 C 0.691406 -5.40625 0.8125 -5.921875 1.03125 -6.359375 C 1.257812 -6.804688 1.59375 -7.15625 2.03125 -7.40625 C 2.476562 -7.65625 3.039062 -7.78125 3.71875 -7.78125 C 4.21875 -7.78125 4.65625 -7.707031 5.03125 -7.5625 C 5.414062 -7.425781 5.734375 -7.238281 5.984375 -7 C 6.234375 -6.769531 6.425781 -6.507812 6.5625 -6.21875 C 6.695312 -5.9375 6.769531 -5.640625 6.78125 -5.328125 C 6.789062 -5.265625 6.769531 -5.210938 6.71875 -5.171875 C 6.675781 -5.128906 6.617188 -5.109375 6.546875 -5.109375 L 5.953125 -5.109375 C 5.878906 -5.109375 5.816406 -5.125 5.765625 -5.15625 C 5.722656 -5.195312 5.691406 -5.265625 5.671875 -5.359375 C 5.546875 -5.921875 5.3125 -6.304688 4.96875 -6.515625 C 4.632812 -6.734375 4.21875 -6.84375 3.71875 -6.84375 C 3.125 -6.84375 2.65625 -6.675781 2.3125 -6.34375 C 1.96875 -6.007812 1.785156 -5.476562 1.765625 -4.75 C 1.742188 -4.15625 1.742188 -3.539062 1.765625 -2.90625 C 1.785156 -2.175781 1.96875 -1.644531 2.3125 -1.3125 C 2.65625 -0.988281 3.125 -0.828125 3.71875 -0.828125 C 4.21875 -0.828125 4.632812 -0.929688 4.96875 -1.140625 C 5.3125 -1.347656 5.546875 -1.738281 5.671875 -2.3125 C 5.691406 -2.40625 5.722656 -2.46875 5.765625 -2.5 C 5.816406 -2.539062 5.878906 -2.5625 5.953125 -2.5625 L 6.546875 -2.5625 C 6.617188 -2.5625 6.675781 -2.539062 6.71875 -2.5 C 6.769531 -2.457031 6.789062 -2.40625 6.78125 -2.34375 C 6.769531 -2.039062 6.695312 -1.738281 6.5625 -1.4375 C 6.425781 -1.144531 6.234375 -0.882812 5.984375 -0.65625 C 5.734375 -0.425781 5.414062 -0.238281 5.03125 -0.09375 C 4.65625 0.0390625 4.21875 0.109375 3.71875 0.109375 Z M 3.71875 0.109375 "/></g></g></g><g fill="#000000" fill-opacity="1"><g transform="translate(206.511891, 246.22428)"><g><path d="M 1.203125 0 C 1.117188 0 1.054688 -0.0195312 1.015625 -0.0625 C 0.972656 -0.113281 0.953125 -0.175781 0.953125 -0.25 L 0.953125 -7.421875 C 0.953125 -7.492188 0.972656 -7.550781 1.015625 -7.59375 C 1.054688 -7.644531 1.117188 -7.671875 1.203125 -7.671875 L 1.78125 -7.671875 C 1.863281 -7.671875 1.925781 -7.644531 1.96875 -7.59375 C 2.007812 -7.550781 2.03125 -7.492188 2.03125 -7.421875 L 2.03125 -0.25 C 2.03125 -0.175781 2.007812 -0.113281 1.96875 -0.0625 C 1.925781 -0.0195312 1.863281 0 1.78125 0 Z M 1.203125 0 "/></g></g></g><g fill="#000000" fill-opacity="1"><g transform="translate(215.525713, 246.22428)"><g><path d="M 3.71875 0.109375 C 3.082031 0.109375 2.539062 0.00390625 2.09375 -0.203125 C 1.65625 -0.421875 1.316406 -0.753906 1.078125 -1.203125 C 0.835938 -1.660156 0.703125 -2.226562 0.671875 -2.90625 C 0.660156 -3.226562 0.65625 -3.535156 0.65625 -3.828125 C 0.65625 -4.117188 0.660156 -4.425781 0.671875 -4.75 C 0.703125 -5.425781 0.84375 -5.988281 1.09375 -6.4375 C 1.34375 -6.882812 1.691406 -7.21875 2.140625 -7.4375 C 2.585938 -7.664062 3.113281 -7.78125 3.71875 -7.78125 C 4.300781 -7.78125 4.816406 -7.664062 5.265625 -7.4375 C 5.722656 -7.21875 6.078125 -6.882812 6.328125 -6.4375 C 6.585938 -5.988281 6.726562 -5.425781 6.75 -4.75 C 6.757812 -4.425781 6.765625 -4.117188 6.765625 -3.828125 C 6.765625 -3.535156 6.757812 -3.226562 6.75 -2.90625 C 6.726562 -2.226562 6.59375 -1.660156 6.34375 -1.203125 C 6.101562 -0.753906 5.757812 -0.421875 5.3125 -0.203125 C 4.863281 0.00390625 4.332031 0.109375 3.71875 0.109375 Z M 3.71875 -0.828125 C 4.269531 -0.828125 4.722656 -0.992188 5.078125 -1.328125 C 5.429688 -1.660156 5.625 -2.203125 5.65625 -2.953125 C 5.664062 -3.285156 5.671875 -3.582031 5.671875 -3.84375 C 5.671875 -4.101562 5.664062 -4.390625 5.65625 -4.703125 C 5.632812 -5.210938 5.535156 -5.625 5.359375 -5.9375 C 5.191406 -6.25 4.96875 -6.476562 4.6875 -6.625 C 4.40625 -6.769531 4.082031 -6.84375 3.71875 -6.84375 C 3.351562 -6.84375 3.023438 -6.769531 2.734375 -6.625 C 2.453125 -6.476562 2.222656 -6.25 2.046875 -5.9375 C 1.878906 -5.625 1.785156 -5.210938 1.765625 -4.703125 C 1.753906 -4.390625 1.75 -4.101562 1.75 -3.84375 C 1.75 -3.582031 1.753906 -3.285156 1.765625 -2.953125 C 1.796875 -2.203125 1.988281 -1.660156 2.34375 -1.328125 C 2.695312 -0.992188 3.15625 -0.828125 3.71875 -0.828125 Z M 3.71875 -0.828125 "/></g></g></g><g fill="#000000" fill-opacity="1"><g transform="translate(228.962218, 246.22428)"><g><path d="M 1.203125 0 C 1.117188 0 1.054688 -0.0195312 1.015625 -0.0625 C 0.972656 -0.113281 0.953125 -0.175781 0.953125 -0.25 L 0.953125 -7.40625 C 0.953125 -7.488281 0.972656 -7.550781 1.015625 -7.59375 C 1.054688 -7.644531 1.117188 -7.671875 1.203125 -7.671875 L 1.703125 -7.671875 C 1.796875 -7.671875 1.863281 -7.648438 1.90625 -7.609375 C 1.945312 -7.566406 1.972656 -7.535156 1.984375 -7.515625 L 5.625 -1.921875 L 5.625 -7.40625 C 5.625 -7.488281 5.644531 -7.550781 5.6875 -7.59375 C 5.726562 -7.644531 5.789062 -7.671875 5.875 -7.671875 L 6.390625 -7.671875 C 6.472656 -7.671875 6.535156 -7.644531 6.578125 -7.59375 C 6.628906 -7.550781 6.65625 -7.488281 6.65625 -7.40625 L 6.65625 -0.265625 C 6.65625 -0.191406 6.628906 -0.128906 6.578125 -0.078125 C 6.535156 -0.0234375 6.476562 0 6.40625 0 L 5.875 0 C 5.800781 0 5.742188 -0.0195312 5.703125 -0.0625 C 5.660156 -0.101562 5.632812 -0.132812 5.625 -0.15625 L 2 -5.6875 L 2 -0.25 C 2 -0.175781 1.972656 -0.113281 1.921875 -0.0625 C 1.867188 -0.0195312 1.804688 0 1.734375 0 Z M 1.203125 0 "/></g></g></g><g fill="#000000" fill-opacity="1"><g transform="translate(242.595782, 246.22428)"><g><path d="M 1.203125 0 C 1.117188 0 1.054688 -0.0195312 1.015625 -0.0625 C 0.972656 -0.113281 0.953125 -0.175781 0.953125 -0.25 L 0.953125 -7.40625 C 0.953125 -7.488281 0.972656 -7.550781 1.015625 -7.59375 C 1.054688 -7.644531 1.117188 -7.671875 1.203125 -7.671875 L 5.734375 -7.671875 C 5.804688 -7.671875 5.863281 -7.644531 5.90625 -7.59375 C 5.957031 -7.550781 5.984375 -7.488281 5.984375 -7.40625 L 5.984375 -6.984375 C 5.984375 -6.910156 5.957031 -6.847656 5.90625 -6.796875 C 5.863281 -6.753906 5.804688 -6.734375 5.734375 -6.734375 L 2 -6.734375 L 2 -4.34375 L 5.484375 -4.34375 C 5.566406 -4.34375 5.628906 -4.316406 5.671875 -4.265625 C 5.710938 -4.210938 5.734375 -4.148438 5.734375 -4.078125 L 5.734375 -3.671875 C 5.734375 -3.597656 5.710938 -3.535156 5.671875 -3.484375 C 5.628906 -3.441406 5.566406 -3.421875 5.484375 -3.421875 L 2 -3.421875 L 2 -0.9375 L 5.8125 -0.9375 C 5.894531 -0.9375 5.957031 -0.910156 6 -0.859375 C 6.039062 -0.816406 6.0625 -0.753906 6.0625 -0.671875 L 6.0625 -0.25 C 6.0625 -0.175781 6.039062 -0.113281 6 -0.0625 C 5.957031 -0.0195312 5.894531 0 5.8125 0 Z M 1.203125 0 "/></g></g></g><g fill="#000000" fill-opacity="1"><g transform="translate(255.255042, 246.22428)"><g><path d="M 3.421875 0.109375 C 2.785156 0.109375 2.25 0.0078125 1.8125 -0.1875 C 1.382812 -0.382812 1.054688 -0.632812 0.828125 -0.9375 C 0.597656 -1.25 0.472656 -1.578125 0.453125 -1.921875 C 0.453125 -1.984375 0.476562 -2.035156 0.53125 -2.078125 C 0.582031 -2.128906 0.640625 -2.15625 0.703125 -2.15625 L 1.265625 -2.15625 C 1.347656 -2.15625 1.410156 -2.132812 1.453125 -2.09375 C 1.492188 -2.050781 1.523438 -2 1.546875 -1.9375 C 1.585938 -1.757812 1.675781 -1.582031 1.8125 -1.40625 C 1.957031 -1.238281 2.15625 -1.097656 2.40625 -0.984375 C 2.664062 -0.878906 3.003906 -0.828125 3.421875 -0.828125 C 4.046875 -0.828125 4.503906 -0.9375 4.796875 -1.15625 C 5.097656 -1.375 5.25 -1.671875 5.25 -2.046875 C 5.25 -2.304688 5.171875 -2.515625 5.015625 -2.671875 C 4.859375 -2.828125 4.617188 -2.96875 4.296875 -3.09375 C 3.972656 -3.21875 3.554688 -3.351562 3.046875 -3.5 C 2.515625 -3.644531 2.070312 -3.804688 1.71875 -3.984375 C 1.363281 -4.171875 1.097656 -4.398438 0.921875 -4.671875 C 0.753906 -4.941406 0.671875 -5.285156 0.671875 -5.703125 C 0.671875 -6.097656 0.773438 -6.453125 0.984375 -6.765625 C 1.203125 -7.078125 1.507812 -7.320312 1.90625 -7.5 C 2.3125 -7.6875 2.796875 -7.78125 3.359375 -7.78125 C 3.816406 -7.78125 4.210938 -7.71875 4.546875 -7.59375 C 4.890625 -7.476562 5.171875 -7.316406 5.390625 -7.109375 C 5.617188 -6.910156 5.789062 -6.695312 5.90625 -6.46875 C 6.03125 -6.238281 6.09375 -6.015625 6.09375 -5.796875 C 6.09375 -5.742188 6.070312 -5.691406 6.03125 -5.640625 C 6 -5.597656 5.945312 -5.578125 5.875 -5.578125 L 5.296875 -5.578125 C 5.242188 -5.578125 5.1875 -5.585938 5.125 -5.609375 C 5.070312 -5.640625 5.03125 -5.695312 5 -5.78125 C 4.957031 -6.082031 4.789062 -6.332031 4.5 -6.53125 C 4.207031 -6.738281 3.828125 -6.84375 3.359375 -6.84375 C 2.890625 -6.84375 2.503906 -6.75 2.203125 -6.5625 C 1.910156 -6.382812 1.765625 -6.101562 1.765625 -5.71875 C 1.765625 -5.46875 1.832031 -5.257812 1.96875 -5.09375 C 2.101562 -4.9375 2.320312 -4.796875 2.625 -4.671875 C 2.925781 -4.546875 3.316406 -4.410156 3.796875 -4.265625 C 4.378906 -4.109375 4.859375 -3.941406 5.234375 -3.765625 C 5.609375 -3.585938 5.882812 -3.363281 6.0625 -3.09375 C 6.238281 -2.820312 6.328125 -2.476562 6.328125 -2.0625 C 6.328125 -1.601562 6.207031 -1.210938 5.96875 -0.890625 C 5.726562 -0.566406 5.390625 -0.316406 4.953125 -0.140625 C 4.515625 0.0234375 4.003906 0.109375 3.421875 0.109375 Z M 3.421875 0.109375 "/></g></g></g></svg>