<svg xmlns="http://www.w3.org/2000/svg" xmlns:xlink="http://www.w3.org/1999/xlink" width="500" zoomAndPan="magnify" viewBox="0 0 375 374.999991" height="500" preserveAspectRatio="xMidYMid meet" version="1.0"><defs><g/><clipPath id="1609ec8545"><path d="M 21.027344 37.5 L 353.949219 37.5 L 353.949219 170.25 L 21.027344 170.25 Z M 21.027344 37.5 " clip-rule="nonzero"/></clipPath></defs><g clip-path="url(#1609ec8545)"><path fill="#ff3131" d="M 236.441406 134.847656 C 256.820312 140.105469 276.597656 148.699219 294.910156 160.75 C 279.128906 144.167969 259.75 131.582031 238.707031 123.726562 C 238.839844 122.660156 238.839844 121.660156 238.839844 120.597656 C 238.839844 114.867188 237.90625 109.476562 236.242188 104.347656 L 254.753906 95.15625 C 261.082031 95.289062 267.539062 95.289062 274.332031 95.289062 L 291.046875 95.289062 C 293.644531 94.359375 295.640625 91.828125 295.640625 88.964844 L 295.773438 88.964844 L 295.773438 88.832031 L 296.574219 60.53125 C 328.738281 61.195312 353.910156 59.863281 353.910156 57.332031 C 354.042969 54.804688 328.9375 52.074219 296.773438 50.941406 L 296.90625 44.878906 C 297.039062 41.019531 293.910156 37.820312 290.179688 37.6875 C 286.386719 37.554688 283.054688 40.683594 283.054688 44.414062 L 282.789062 50.609375 C 250.625 49.941406 225.453125 51.273438 225.320312 53.804688 C 225.320312 56.335938 250.292969 59.066406 282.523438 60.195312 L 281.859375 81.707031 L 275 81.441406 L 251.625 80.773438 L 229.847656 91.496094 C 220.59375 77.976562 205.144531 69.1875 187.496094 69.1875 L 187.429688 69.1875 C 169.78125 69.1875 154.332031 77.976562 145.078125 91.496094 L 123.300781 80.773438 L 99.859375 81.441406 L 93.003906 81.707031 L 92.46875 60.195312 C 124.632812 59.066406 149.671875 56.335938 149.671875 53.804688 C 149.539062 51.273438 124.367188 49.941406 92.203125 50.609375 L 91.9375 44.414062 C 91.804688 40.617188 88.605469 37.554688 84.8125 37.6875 C 80.949219 37.820312 77.820312 41.019531 77.953125 44.945312 L 78.21875 51.007812 C 45.921875 52.140625 20.949219 54.871094 20.949219 57.398438 C 21.082031 59.929688 46.253906 61.261719 78.417969 60.597656 L 79.21875 88.898438 L 79.21875 88.964844 C 79.351562 91.828125 81.28125 94.359375 83.8125 95.289062 L 100.660156 95.289062 C 107.386719 95.289062 113.84375 95.289062 120.238281 95.15625 L 138.75 104.347656 C 137.019531 109.542969 136.152344 114.867188 136.152344 120.597656 C 136.152344 121.660156 136.152344 122.660156 136.289062 123.726562 C 115.109375 131.515625 95.867188 144.101562 80.082031 160.75 C 98.394531 148.699219 118.109375 140.175781 138.550781 134.847656 C 145.410156 155.421875 164.988281 170.007812 187.429688 170.007812 C 210.003906 170.007812 229.515625 155.488281 236.441406 134.847656 Z M 225.988281 125.125 C 225.988281 125.257812 225.988281 125.390625 225.851562 125.390625 C 225.386719 127.722656 224.722656 129.984375 223.921875 131.984375 C 218.0625 146.632812 203.746094 156.554688 187.5625 156.554688 C 171.382812 156.554688 157.128906 146.566406 151.269531 131.984375 C 150.339844 129.917969 149.671875 127.589844 149.207031 125.390625 C 149.207031 125.390625 149.207031 125.257812 149.207031 125.125 C 149.074219 123.660156 148.941406 122.128906 148.941406 120.664062 C 148.941406 117 149.40625 113.402344 150.339844 110.140625 L 161.324219 115.535156 C 161.191406 116.46875 161.058594 117.332031 160.992188 118.265625 L 160.992188 118.796875 L 160.792969 118.929688 L 160.792969 120.929688 C 160.792969 138.441406 174.179688 147.234375 187.429688 147.164062 C 200.816406 147.300781 214.199219 138.507812 214.199219 120.929688 L 214.199219 119.332031 L 214.066406 119.199219 L 214.066406 118.132812 C 213.933594 117.199219 213.800781 116.332031 213.734375 115.402344 L 224.589844 110.007812 C 225.652344 113.335938 226.054688 116.867188 226.054688 120.527344 C 226.1875 122.128906 226.054688 123.660156 225.988281 125.125 Z M 186.898438 115.867188 C 186.898438 112.070312 189.894531 109.007812 193.621094 109.007812 C 197.351562 109.007812 200.480469 112.136719 200.480469 115.867188 C 200.480469 119.597656 197.351562 122.59375 193.621094 122.59375 C 189.828125 122.59375 186.898438 119.597656 186.898438 115.867188 Z M 187.429688 94.027344 L 185.300781 94.027344 L 184.964844 94.160156 L 184.101562 94.160156 L 183.765625 94.292969 L 183.433594 94.292969 L 183.101562 94.425781 L 182.769531 94.425781 L 182.433594 94.558594 L 182.101562 94.558594 L 181.105469 94.957031 L 180.039062 95.222656 L 179.707031 95.355469 L 179.371094 95.492188 L 178.707031 95.757812 C 174.3125 97.222656 170.582031 99.753906 167.585938 103.082031 L 156.597656 97.6875 C 163.722656 88.296875 174.910156 82.238281 187.496094 82.238281 C 200.214844 82.238281 211.402344 88.296875 218.394531 97.6875 L 207.40625 103.082031 C 204.542969 99.753906 200.683594 97.222656 196.417969 95.757812 L 195.753906 95.492188 L 195.421875 95.355469 L 195.089844 95.222656 L 194.023438 94.957031 L 193.691406 94.824219 L 193.355469 94.691406 L 193.023438 94.558594 L 192.691406 94.558594 L 192.359375 94.425781 L 192.023438 94.425781 L 191.691406 94.292969 L 191.359375 94.292969 L 190.894531 94.160156 L 190.226562 94.160156 L 189.894531 94.027344 Z M 185.367188 128.785156 C 186.765625 128.785156 187.894531 129.917969 187.894531 131.316406 C 187.894531 132.714844 186.765625 133.847656 185.367188 133.847656 C 183.96875 133.847656 182.835938 132.714844 182.835938 131.316406 C 182.835938 129.917969 184.035156 128.785156 185.367188 128.785156 Z M 185.367188 128.785156 " fill-opacity="1" fill-rule="evenodd"/></g><g fill="#000000" fill-opacity="1"><g transform="translate(115.150248, 248.748617)"><g><path d="M 4.375 0 L 4.375 -46.140625 L 34.5 -46.140625 L 44.078125 -36.5625 L 44.078125 -9.578125 L 34.5 0 Z M 16.09375 -8.890625 L 29.421875 -8.890625 L 32.75 -12.203125 L 32.75 -33.9375 L 29.421875 -37.25 L 16.09375 -37.25 Z M 16.09375 -8.890625 "/></g></g></g><g fill="#000000" fill-opacity="1"><g transform="translate(167.98876, 248.748617)"><g><path d="M 15.40625 0 L 15.40625 -16.15625 L 10.765625 -20.15625 L 0 -46.140625 L 13.46875 -46.140625 L 20.09375 -24.921875 L 22.359375 -24.921875 L 28.984375 -46.140625 L 42.453125 -46.140625 L 31.6875 -20.15625 L 27.046875 -16.15625 L 27.046875 0 Z M 15.40625 0 "/></g></g></g><g fill="#000000" fill-opacity="1"><g transform="translate(216.695474, 248.748617)"><g><path d="M 4.375 0 L 4.375 -46.140625 L 35.25 -46.140625 L 42.203125 -39.1875 L 42.203125 -21.40625 L 35.25 -14.46875 L 16.09375 -14.46875 L 16.09375 0 Z M 16.09375 -23.359375 L 28.671875 -23.359375 L 30.859375 -25.546875 L 30.859375 -35.0625 L 28.671875 -37.25 L 16.09375 -37.25 Z M 16.09375 -23.359375 "/></g></g></g><g fill="#000000" fill-opacity="1"><g transform="translate(112.927053, 287.973276)"><g><path d="M 1.203125 0 C 1.117188 0 1.054688 -0.0195312 1.015625 -0.0625 C 0.972656 -0.113281 0.953125 -0.175781 0.953125 -0.25 L 0.953125 -7.40625 C 0.953125 -7.488281 0.972656 -7.550781 1.015625 -7.59375 C 1.054688 -7.644531 1.117188 -7.671875 1.203125 -7.671875 L 3.984375 -7.671875 C 4.523438 -7.671875 4.992188 -7.582031 5.390625 -7.40625 C 5.785156 -7.226562 6.09375 -6.960938 6.3125 -6.609375 C 6.539062 -6.265625 6.65625 -5.835938 6.65625 -5.328125 C 6.65625 -4.804688 6.539062 -4.375 6.3125 -4.03125 C 6.09375 -3.6875 5.785156 -3.425781 5.390625 -3.25 C 4.992188 -3.070312 4.523438 -2.984375 3.984375 -2.984375 L 2.046875 -2.984375 L 2.046875 -0.25 C 2.046875 -0.175781 2.019531 -0.113281 1.96875 -0.0625 C 1.925781 -0.0195312 1.863281 0 1.78125 0 Z M 2.03125 -3.90625 L 3.9375 -3.90625 C 4.476562 -3.90625 4.878906 -4.023438 5.140625 -4.265625 C 5.410156 -4.515625 5.546875 -4.867188 5.546875 -5.328125 C 5.546875 -5.773438 5.414062 -6.125 5.15625 -6.375 C 4.894531 -6.625 4.488281 -6.75 3.9375 -6.75 L 2.03125 -6.75 Z M 2.03125 -3.90625 "/></g></g></g><g fill="#000000" fill-opacity="1"><g transform="translate(125.980405, 287.973276)"><g><path d="M 1.203125 0 C 1.117188 0 1.054688 -0.0195312 1.015625 -0.0625 C 0.972656 -0.113281 0.953125 -0.175781 0.953125 -0.25 L 0.953125 -7.40625 C 0.953125 -7.488281 0.972656 -7.550781 1.015625 -7.59375 C 1.054688 -7.644531 1.117188 -7.671875 1.203125 -7.671875 L 3.875 -7.671875 C 4.695312 -7.671875 5.347656 -7.472656 5.828125 -7.078125 C 6.316406 -6.691406 6.5625 -6.117188 6.5625 -5.359375 C 6.5625 -4.804688 6.421875 -4.351562 6.140625 -4 C 5.859375 -3.644531 5.476562 -3.394531 5 -3.25 L 6.6875 -0.34375 C 6.707031 -0.300781 6.71875 -0.257812 6.71875 -0.21875 C 6.71875 -0.15625 6.691406 -0.101562 6.640625 -0.0625 C 6.597656 -0.0195312 6.546875 0 6.484375 0 L 5.953125 0 C 5.828125 0 5.734375 -0.03125 5.671875 -0.09375 C 5.617188 -0.164062 5.570312 -0.234375 5.53125 -0.296875 L 3.9375 -3.078125 L 2.03125 -3.078125 L 2.03125 -0.25 C 2.03125 -0.175781 2.003906 -0.113281 1.953125 -0.0625 C 1.910156 -0.0195312 1.847656 0 1.765625 0 Z M 2.03125 -4.015625 L 3.828125 -4.015625 C 4.378906 -4.015625 4.789062 -4.128906 5.0625 -4.359375 C 5.332031 -4.585938 5.46875 -4.925781 5.46875 -5.375 C 5.46875 -5.820312 5.332031 -6.160156 5.0625 -6.390625 C 4.800781 -6.628906 4.390625 -6.75 3.828125 -6.75 L 2.03125 -6.75 Z M 2.03125 -4.015625 "/></g></g></g><g fill="#000000" fill-opacity="1"><g transform="translate(139.176072, 287.973276)"><g><path d="M 3.71875 0.109375 C 3.082031 0.109375 2.539062 0.00390625 2.09375 -0.203125 C 1.65625 -0.421875 1.316406 -0.753906 1.078125 -1.203125 C 0.835938 -1.660156 0.703125 -2.226562 0.671875 -2.90625 C 0.660156 -3.226562 0.65625 -3.535156 0.65625 -3.828125 C 0.65625 -4.117188 0.660156 -4.425781 0.671875 -4.75 C 0.703125 -5.425781 0.84375 -5.988281 1.09375 -6.4375 C 1.34375 -6.882812 1.691406 -7.21875 2.140625 -7.4375 C 2.585938 -7.664062 3.113281 -7.78125 3.71875 -7.78125 C 4.300781 -7.78125 4.816406 -7.664062 5.265625 -7.4375 C 5.722656 -7.21875 6.078125 -6.882812 6.328125 -6.4375 C 6.585938 -5.988281 6.726562 -5.425781 6.75 -4.75 C 6.757812 -4.425781 6.765625 -4.117188 6.765625 -3.828125 C 6.765625 -3.535156 6.757812 -3.226562 6.75 -2.90625 C 6.726562 -2.226562 6.59375 -1.660156 6.34375 -1.203125 C 6.101562 -0.753906 5.757812 -0.421875 5.3125 -0.203125 C 4.863281 0.00390625 4.332031 0.109375 3.71875 0.109375 Z M 3.71875 -0.828125 C 4.269531 -0.828125 4.722656 -0.992188 5.078125 -1.328125 C 5.429688 -1.660156 5.625 -2.203125 5.65625 -2.953125 C 5.664062 -3.285156 5.671875 -3.582031 5.671875 -3.84375 C 5.671875 -4.101562 5.664062 -4.390625 5.65625 -4.703125 C 5.632812 -5.210938 5.535156 -5.625 5.359375 -5.9375 C 5.191406 -6.25 4.96875 -6.476562 4.6875 -6.625 C 4.40625 -6.769531 4.082031 -6.84375 3.71875 -6.84375 C 3.351562 -6.84375 3.023438 -6.769531 2.734375 -6.625 C 2.453125 -6.476562 2.222656 -6.25 2.046875 -5.9375 C 1.878906 -5.625 1.785156 -5.210938 1.765625 -4.703125 C 1.753906 -4.390625 1.75 -4.101562 1.75 -3.84375 C 1.75 -3.582031 1.753906 -3.285156 1.765625 -2.953125 C 1.796875 -2.203125 1.988281 -1.660156 2.34375 -1.328125 C 2.695312 -0.992188 3.15625 -0.828125 3.71875 -0.828125 Z M 3.71875 -0.828125 "/></g></g></g><g fill="#000000" fill-opacity="1"><g transform="translate(152.612577, 287.973276)"><g><path d="M 1.203125 0 C 1.117188 0 1.054688 -0.0195312 1.015625 -0.0625 C 0.972656 -0.113281 0.953125 -0.175781 0.953125 -0.25 L 0.953125 -7.40625 C 0.953125 -7.488281 0.972656 -7.550781 1.015625 -7.59375 C 1.054688 -7.644531 1.117188 -7.671875 1.203125 -7.671875 L 3.6875 -7.671875 C 4.4375 -7.671875 5.039062 -7.554688 5.5 -7.328125 C 5.96875 -7.097656 6.304688 -6.757812 6.515625 -6.3125 C 6.722656 -5.875 6.832031 -5.335938 6.84375 -4.703125 C 6.851562 -4.367188 6.859375 -4.078125 6.859375 -3.828125 C 6.859375 -3.585938 6.851562 -3.304688 6.84375 -2.984375 C 6.832031 -2.304688 6.722656 -1.742188 6.515625 -1.296875 C 6.304688 -0.859375 5.976562 -0.53125 5.53125 -0.3125 C 5.082031 -0.101562 4.488281 0 3.75 0 Z M 2.03125 -0.9375 L 3.6875 -0.9375 C 4.195312 -0.9375 4.597656 -1.003906 4.890625 -1.140625 C 5.191406 -1.273438 5.410156 -1.492188 5.546875 -1.796875 C 5.679688 -2.109375 5.753906 -2.515625 5.765625 -3.015625 C 5.773438 -3.242188 5.78125 -3.4375 5.78125 -3.59375 C 5.78125 -3.757812 5.78125 -3.925781 5.78125 -4.09375 C 5.78125 -4.257812 5.773438 -4.445312 5.765625 -4.65625 C 5.742188 -5.363281 5.570312 -5.882812 5.25 -6.21875 C 4.9375 -6.5625 4.398438 -6.734375 3.640625 -6.734375 L 2.03125 -6.734375 Z M 2.03125 -0.9375 "/></g></g></g><g fill="#000000" fill-opacity="1"><g transform="translate(166.180459, 287.973276)"><g><path d="M 3.84375 0.109375 C 3.226562 0.109375 2.695312 0 2.25 -0.21875 C 1.8125 -0.4375 1.472656 -0.769531 1.234375 -1.21875 C 1.003906 -1.664062 0.890625 -2.242188 0.890625 -2.953125 L 0.890625 -7.40625 C 0.890625 -7.488281 0.910156 -7.550781 0.953125 -7.59375 C 0.992188 -7.644531 1.054688 -7.671875 1.140625 -7.671875 L 1.703125 -7.671875 C 1.773438 -7.671875 1.832031 -7.644531 1.875 -7.59375 C 1.925781 -7.550781 1.953125 -7.488281 1.953125 -7.40625 L 1.953125 -2.9375 C 1.953125 -2.21875 2.117188 -1.6875 2.453125 -1.34375 C 2.796875 -1 3.257812 -0.828125 3.84375 -0.828125 C 4.414062 -0.828125 4.875 -1 5.21875 -1.34375 C 5.5625 -1.6875 5.734375 -2.21875 5.734375 -2.9375 L 5.734375 -7.40625 C 5.734375 -7.488281 5.753906 -7.550781 5.796875 -7.59375 C 5.847656 -7.644531 5.910156 -7.671875 5.984375 -7.671875 L 6.546875 -7.671875 C 6.617188 -7.671875 6.675781 -7.644531 6.71875 -7.59375 C 6.769531 -7.550781 6.796875 -7.488281 6.796875 -7.40625 L 6.796875 -2.953125 C 6.796875 -2.242188 6.675781 -1.664062 6.4375 -1.21875 C 6.207031 -0.769531 5.875 -0.4375 5.4375 -0.21875 C 5 0 4.46875 0.109375 3.84375 0.109375 Z M 3.84375 0.109375 "/></g></g></g><g fill="#000000" fill-opacity="1"><g transform="translate(179.879705, 287.973276)"><g><path d="M 3.71875 0.109375 C 3.039062 0.109375 2.476562 -0.015625 2.03125 -0.265625 C 1.59375 -0.515625 1.257812 -0.859375 1.03125 -1.296875 C 0.8125 -1.742188 0.691406 -2.265625 0.671875 -2.859375 C 0.660156 -3.160156 0.65625 -3.484375 0.65625 -3.828125 C 0.65625 -4.171875 0.660156 -4.5 0.671875 -4.8125 C 0.691406 -5.40625 0.8125 -5.921875 1.03125 -6.359375 C 1.257812 -6.804688 1.59375 -7.15625 2.03125 -7.40625 C 2.476562 -7.65625 3.039062 -7.78125 3.71875 -7.78125 C 4.21875 -7.78125 4.65625 -7.707031 5.03125 -7.5625 C 5.414062 -7.425781 5.734375 -7.238281 5.984375 -7 C 6.234375 -6.769531 6.425781 -6.507812 6.5625 -6.21875 C 6.695312 -5.9375 6.769531 -5.640625 6.78125 -5.328125 C 6.789062 -5.265625 6.769531 -5.210938 6.71875 -5.171875 C 6.675781 -5.128906 6.617188 -5.109375 6.546875 -5.109375 L 5.953125 -5.109375 C 5.878906 -5.109375 5.816406 -5.125 5.765625 -5.15625 C 5.722656 -5.195312 5.691406 -5.265625 5.671875 -5.359375 C 5.546875 -5.921875 5.3125 -6.304688 4.96875 -6.515625 C 4.632812 -6.734375 4.21875 -6.84375 3.71875 -6.84375 C 3.125 -6.84375 2.65625 -6.675781 2.3125 -6.34375 C 1.96875 -6.007812 1.785156 -5.476562 1.765625 -4.75 C 1.742188 -4.15625 1.742188 -3.539062 1.765625 -2.90625 C 1.785156 -2.175781 1.96875 -1.644531 2.3125 -1.3125 C 2.65625 -0.988281 3.125 -0.828125 3.71875 -0.828125 C 4.21875 -0.828125 4.632812 -0.929688 4.96875 -1.140625 C 5.3125 -1.347656 5.546875 -1.738281 5.671875 -2.3125 C 5.691406 -2.40625 5.722656 -2.46875 5.765625 -2.5 C 5.816406 -2.539062 5.878906 -2.5625 5.953125 -2.5625 L 6.546875 -2.5625 C 6.617188 -2.5625 6.675781 -2.539062 6.71875 -2.5 C 6.769531 -2.457031 6.789062 -2.40625 6.78125 -2.34375 C 6.769531 -2.039062 6.695312 -1.738281 6.5625 -1.4375 C 6.425781 -1.144531 6.234375 -0.882812 5.984375 -0.65625 C 5.734375 -0.425781 5.414062 -0.238281 5.03125 -0.09375 C 4.65625 0.0390625 4.21875 0.109375 3.71875 0.109375 Z M 3.71875 0.109375 "/></g></g></g><g fill="#000000" fill-opacity="1"><g transform="translate(193.195798, 287.973276)"><g><path d="M 3.71875 0.109375 C 3.039062 0.109375 2.476562 -0.015625 2.03125 -0.265625 C 1.59375 -0.515625 1.257812 -0.859375 1.03125 -1.296875 C 0.8125 -1.742188 0.691406 -2.265625 0.671875 -2.859375 C 0.660156 -3.160156 0.65625 -3.484375 0.65625 -3.828125 C 0.65625 -4.171875 0.660156 -4.5 0.671875 -4.8125 C 0.691406 -5.40625 0.8125 -5.921875 1.03125 -6.359375 C 1.257812 -6.804688 1.59375 -7.15625 2.03125 -7.40625 C 2.476562 -7.65625 3.039062 -7.78125 3.71875 -7.78125 C 4.21875 -7.78125 4.65625 -7.707031 5.03125 -7.5625 C 5.414062 -7.425781 5.734375 -7.238281 5.984375 -7 C 6.234375 -6.769531 6.425781 -6.507812 6.5625 -6.21875 C 6.695312 -5.9375 6.769531 -5.640625 6.78125 -5.328125 C 6.789062 -5.265625 6.769531 -5.210938 6.71875 -5.171875 C 6.675781 -5.128906 6.617188 -5.109375 6.546875 -5.109375 L 5.953125 -5.109375 C 5.878906 -5.109375 5.816406 -5.125 5.765625 -5.15625 C 5.722656 -5.195312 5.691406 -5.265625 5.671875 -5.359375 C 5.546875 -5.921875 5.3125 -6.304688 4.96875 -6.515625 C 4.632812 -6.734375 4.21875 -6.84375 3.71875 -6.84375 C 3.125 -6.84375 2.65625 -6.675781 2.3125 -6.34375 C 1.96875 -6.007812 1.785156 -5.476562 1.765625 -4.75 C 1.742188 -4.15625 1.742188 -3.539062 1.765625 -2.90625 C 1.785156 -2.175781 1.96875 -1.644531 2.3125 -1.3125 C 2.65625 -0.988281 3.125 -0.828125 3.71875 -0.828125 C 4.21875 -0.828125 4.632812 -0.929688 4.96875 -1.140625 C 5.3125 -1.347656 5.546875 -1.738281 5.671875 -2.3125 C 5.691406 -2.40625 5.722656 -2.46875 5.765625 -2.5 C 5.816406 -2.539062 5.878906 -2.5625 5.953125 -2.5625 L 6.546875 -2.5625 C 6.617188 -2.5625 6.675781 -2.539062 6.71875 -2.5 C 6.769531 -2.457031 6.789062 -2.40625 6.78125 -2.34375 C 6.769531 -2.039062 6.695312 -1.738281 6.5625 -1.4375 C 6.425781 -1.144531 6.234375 -0.882812 5.984375 -0.65625 C 5.734375 -0.425781 5.414062 -0.238281 5.03125 -0.09375 C 4.65625 0.0390625 4.21875 0.109375 3.71875 0.109375 Z M 3.71875 0.109375 "/></g></g></g><g fill="#000000" fill-opacity="1"><g transform="translate(206.511891, 287.973276)"><g><path d="M 1.203125 0 C 1.117188 0 1.054688 -0.0195312 1.015625 -0.0625 C 0.972656 -0.113281 0.953125 -0.175781 0.953125 -0.25 L 0.953125 -7.421875 C 0.953125 -7.492188 0.972656 -7.550781 1.015625 -7.59375 C 1.054688 -7.644531 1.117188 -7.671875 1.203125 -7.671875 L 1.78125 -7.671875 C 1.863281 -7.671875 1.925781 -7.644531 1.96875 -7.59375 C 2.007812 -7.550781 2.03125 -7.492188 2.03125 -7.421875 L 2.03125 -0.25 C 2.03125 -0.175781 2.007812 -0.113281 1.96875 -0.0625 C 1.925781 -0.0195312 1.863281 0 1.78125 0 Z M 1.203125 0 "/></g></g></g><g fill="#000000" fill-opacity="1"><g transform="translate(215.525713, 287.973276)"><g><path d="M 3.71875 0.109375 C 3.082031 0.109375 2.539062 0.00390625 2.09375 -0.203125 C 1.65625 -0.421875 1.316406 -0.753906 1.078125 -1.203125 C 0.835938 -1.660156 0.703125 -2.226562 0.671875 -2.90625 C 0.660156 -3.226562 0.65625 -3.535156 0.65625 -3.828125 C 0.65625 -4.117188 0.660156 -4.425781 0.671875 -4.75 C 0.703125 -5.425781 0.84375 -5.988281 1.09375 -6.4375 C 1.34375 -6.882812 1.691406 -7.21875 2.140625 -7.4375 C 2.585938 -7.664062 3.113281 -7.78125 3.71875 -7.78125 C 4.300781 -7.78125 4.816406 -7.664062 5.265625 -7.4375 C 5.722656 -7.21875 6.078125 -6.882812 6.328125 -6.4375 C 6.585938 -5.988281 6.726562 -5.425781 6.75 -4.75 C 6.757812 -4.425781 6.765625 -4.117188 6.765625 -3.828125 C 6.765625 -3.535156 6.757812 -3.226562 6.75 -2.90625 C 6.726562 -2.226562 6.59375 -1.660156 6.34375 -1.203125 C 6.101562 -0.753906 5.757812 -0.421875 5.3125 -0.203125 C 4.863281 0.00390625 4.332031 0.109375 3.71875 0.109375 Z M 3.71875 -0.828125 C 4.269531 -0.828125 4.722656 -0.992188 5.078125 -1.328125 C 5.429688 -1.660156 5.625 -2.203125 5.65625 -2.953125 C 5.664062 -3.285156 5.671875 -3.582031 5.671875 -3.84375 C 5.671875 -4.101562 5.664062 -4.390625 5.65625 -4.703125 C 5.632812 -5.210938 5.535156 -5.625 5.359375 -5.9375 C 5.191406 -6.25 4.96875 -6.476562 4.6875 -6.625 C 4.40625 -6.769531 4.082031 -6.84375 3.71875 -6.84375 C 3.351562 -6.84375 3.023438 -6.769531 2.734375 -6.625 C 2.453125 -6.476562 2.222656 -6.25 2.046875 -5.9375 C 1.878906 -5.625 1.785156 -5.210938 1.765625 -4.703125 C 1.753906 -4.390625 1.75 -4.101562 1.75 -3.84375 C 1.75 -3.582031 1.753906 -3.285156 1.765625 -2.953125 C 1.796875 -2.203125 1.988281 -1.660156 2.34375 -1.328125 C 2.695312 -0.992188 3.15625 -0.828125 3.71875 -0.828125 Z M 3.71875 -0.828125 "/></g></g></g><g fill="#000000" fill-opacity="1"><g transform="translate(228.962218, 287.973276)"><g><path d="M 1.203125 0 C 1.117188 0 1.054688 -0.0195312 1.015625 -0.0625 C 0.972656 -0.113281 0.953125 -0.175781 0.953125 -0.25 L 0.953125 -7.40625 C 0.953125 -7.488281 0.972656 -7.550781 1.015625 -7.59375 C 1.054688 -7.644531 1.117188 -7.671875 1.203125 -7.671875 L 1.703125 -7.671875 C 1.796875 -7.671875 1.863281 -7.648438 1.90625 -7.609375 C 1.945312 -7.566406 1.972656 -7.535156 1.984375 -7.515625 L 5.625 -1.921875 L 5.625 -7.40625 C 5.625 -7.488281 5.644531 -7.550781 5.6875 -7.59375 C 5.726562 -7.644531 5.789062 -7.671875 5.875 -7.671875 L 6.390625 -7.671875 C 6.472656 -7.671875 6.535156 -7.644531 6.578125 -7.59375 C 6.628906 -7.550781 6.65625 -7.488281 6.65625 -7.40625 L 6.65625 -0.265625 C 6.65625 -0.191406 6.628906 -0.128906 6.578125 -0.078125 C 6.535156 -0.0234375 6.476562 0 6.40625 0 L 5.875 0 C 5.800781 0 5.742188 -0.0195312 5.703125 -0.0625 C 5.660156 -0.101562 5.632812 -0.132812 5.625 -0.15625 L 2 -5.6875 L 2 -0.25 C 2 -0.175781 1.972656 -0.113281 1.921875 -0.0625 C 1.867188 -0.0195312 1.804688 0 1.734375 0 Z M 1.203125 0 "/></g></g></g><g fill="#000000" fill-opacity="1"><g transform="translate(242.595782, 287.973276)"><g><path d="M 1.203125 0 C 1.117188 0 1.054688 -0.0195312 1.015625 -0.0625 C 0.972656 -0.113281 0.953125 -0.175781 0.953125 -0.25 L 0.953125 -7.40625 C 0.953125 -7.488281 0.972656 -7.550781 1.015625 -7.59375 C 1.054688 -7.644531 1.117188 -7.671875 1.203125 -7.671875 L 5.734375 -7.671875 C 5.804688 -7.671875 5.863281 -7.644531 5.90625 -7.59375 C 5.957031 -7.550781 5.984375 -7.488281 5.984375 -7.40625 L 5.984375 -6.984375 C 5.984375 -6.910156 5.957031 -6.847656 5.90625 -6.796875 C 5.863281 -6.753906 5.804688 -6.734375 5.734375 -6.734375 L 2 -6.734375 L 2 -4.34375 L 5.484375 -4.34375 C 5.566406 -4.34375 5.628906 -4.316406 5.671875 -4.265625 C 5.710938 -4.210938 5.734375 -4.148438 5.734375 -4.078125 L 5.734375 -3.671875 C 5.734375 -3.597656 5.710938 -3.535156 5.671875 -3.484375 C 5.628906 -3.441406 5.566406 -3.421875 5.484375 -3.421875 L 2 -3.421875 L 2 -0.9375 L 5.8125 -0.9375 C 5.894531 -0.9375 5.957031 -0.910156 6 -0.859375 C 6.039062 -0.816406 6.0625 -0.753906 6.0625 -0.671875 L 6.0625 -0.25 C 6.0625 -0.175781 6.039062 -0.113281 6 -0.0625 C 5.957031 -0.0195312 5.894531 0 5.8125 0 Z M 1.203125 0 "/></g></g></g><g fill="#000000" fill-opacity="1"><g transform="translate(255.255042, 287.973276)"><g><path d="M 3.421875 0.109375 C 2.785156 0.109375 2.25 0.0078125 1.8125 -0.1875 C 1.382812 -0.382812 1.054688 -0.632812 0.828125 -0.9375 C 0.597656 -1.25 0.472656 -1.578125 0.453125 -1.921875 C 0.453125 -1.984375 0.476562 -2.035156 0.53125 -2.078125 C 0.582031 -2.128906 0.640625 -2.15625 0.703125 -2.15625 L 1.265625 -2.15625 C 1.347656 -2.15625 1.410156 -2.132812 1.453125 -2.09375 C 1.492188 -2.050781 1.523438 -2 1.546875 -1.9375 C 1.585938 -1.757812 1.675781 -1.582031 1.8125 -1.40625 C 1.957031 -1.238281 2.15625 -1.097656 2.40625 -0.984375 C 2.664062 -0.878906 3.003906 -0.828125 3.421875 -0.828125 C 4.046875 -0.828125 4.503906 -0.9375 4.796875 -1.15625 C 5.097656 -1.375 5.25 -1.671875 5.25 -2.046875 C 5.25 -2.304688 5.171875 -2.515625 5.015625 -2.671875 C 4.859375 -2.828125 4.617188 -2.96875 4.296875 -3.09375 C 3.972656 -3.21875 3.554688 -3.351562 3.046875 -3.5 C 2.515625 -3.644531 2.070312 -3.804688 1.71875 -3.984375 C 1.363281 -4.171875 1.097656 -4.398438 0.921875 -4.671875 C 0.753906 -4.941406 0.671875 -5.285156 0.671875 -5.703125 C 0.671875 -6.097656 0.773438 -6.453125 0.984375 -6.765625 C 1.203125 -7.078125 1.507812 -7.320312 1.90625 -7.5 C 2.3125 -7.6875 2.796875 -7.78125 3.359375 -7.78125 C 3.816406 -7.78125 4.210938 -7.71875 4.546875 -7.59375 C 4.890625 -7.476562 5.171875 -7.316406 5.390625 -7.109375 C 5.617188 -6.910156 5.789062 -6.695312 5.90625 -6.46875 C 6.03125 -6.238281 6.09375 -6.015625 6.09375 -5.796875 C 6.09375 -5.742188 6.070312 -5.691406 6.03125 -5.640625 C 6 -5.597656 5.945312 -5.578125 5.875 -5.578125 L 5.296875 -5.578125 C 5.242188 -5.578125 5.1875 -5.585938 5.125 -5.609375 C 5.070312 -5.640625 5.03125 -5.695312 5 -5.78125 C 4.957031 -6.082031 4.789062 -6.332031 4.5 -6.53125 C 4.207031 -6.738281 3.828125 -6.84375 3.359375 -6.84375 C 2.890625 -6.84375 2.503906 -6.75 2.203125 -6.5625 C 1.910156 -6.382812 1.765625 -6.101562 1.765625 -5.71875 C 1.765625 -5.46875 1.832031 -5.257812 1.96875 -5.09375 C 2.101562 -4.9375 2.320312 -4.796875 2.625 -4.671875 C 2.925781 -4.546875 3.316406 -4.410156 3.796875 -4.265625 C 4.378906 -4.109375 4.859375 -3.941406 5.234375 -3.765625 C 5.609375 -3.585938 5.882812 -3.363281 6.0625 -3.09375 C 6.238281 -2.820312 6.328125 -2.476562 6.328125 -2.0625 C 6.328125 -1.601562 6.207031 -1.210938 5.96875 -0.890625 C 5.726562 -0.566406 5.390625 -0.316406 4.953125 -0.140625 C 4.515625 0.0234375 4.003906 0.109375 3.421875 0.109375 Z M 3.421875 0.109375 "/></g></g></g></svg>